Patient4_TMGait_0pt7_01_right_42_GRF.mot
version=1
nRows=65
nColumns=19
inDegrees=no
endheader
time	F1x	F1y	F1z	M1x	M1y	M1z	F2x	F2y	F2z	M2x	M2y	M2z	EC1x	EC1y	EC1z	EC2x	EC2y	EC2z
48.06	-18.647	734.3713	65.3155	-242.7966	-76.0783	808.9154	-17.5653	2.9559	-20.4177	7.8286	13.1324	7.6808	-0.0592	0.0182	-0.0073	-0.0462	0.0165	0.9585
48.0718	-16.4907	728.9057	66.6818	-239.8452	-76.7502	802.8578	-11.9143	3.1778	-13.8507	5.7921	8.9785	6.6864	-0.0592	0.0182	-0.0073	-0.0462	0.0165	0.9585
48.0836	-14.5593	723.2574	67.7664	-236.7009	-77.1054	795.9617	-7.1763	3.4564	-8.2366	4.0781	5.4339	5.9855	-0.0592	0.0182	-0.0073	-0.0462	0.0165	0.9585
48.0954	-12.9351	718.1515	68.5338	-233.6865	-77.1426	788.9639	-3.5833	3.7388	-3.9306	2.7863	2.7151	5.5545	-0.0592	0.0182	-0.0073	-0.0462	0.0165	0.9585
48.1071	-11.5763	714.2513	69.0433	-231.1006	-76.9237	782.5929	-1.1436	4.008	-0.93009	1.9131	0.83087	5.3672	-0.0592	0.0182	-0.0073	-0.0462	0.0165	0.9585
48.1189	-10.4	712.0294	69.3902	-229.1626	-76.5359	777.4029	0.33806	4.2217	0.94569	1.3852	-0.33135	5.3039	-0.0592	0.0182	-0.0073	-0.0462	0.0165	0.9585
48.1307	-9.2615	711.6374	69.6653	-227.9692	-76.0458	773.6079	1.066	4.3479	1.9478	1.1044	-0.92133	5.277	-0.0592	0.0182	-0.0073	-0.0462	0.0165	0.9585
48.1425	-8.0296	712.9536	69.8767	-227.5109	-75.4406	771.1253	1.2866	4.3057	2.3365	0.95545	-1.1071	5.1308	-0.0592	0.0182	-0.0073	-0.0462	0.0165	0.9585
48.1543	-6.5763	715.6302	70.0356	-227.6895	-74.7042	769.6217	1.173	4.0155	2.3154	0.82879	-1.0059	4.7336	-0.0592	0.0182	-0.0073	-0.0462	0.0165	0.9585
48.1661	-4.8041	719.2001	70.0958	-228.3541	-73.7708	768.6562	0.89348	3.3432	2.0572	0.61489	-0.73509	3.8776	-0.0592	0.0182	-0.0073	-0.0462	0.0165	0.9585
48.1779	-2.6255	723.1791	70.0528	-229.3341	-72.6118	767.7582	0.5499	2.1673	1.6726	0.22107	-0.36896	2.402	-0.0592	0.0182	-0.0073	-0.0462	0.0165	0.9585
48.1896	0.0036874	727.1292	69.8762	-230.466	-71.1851	766.5114	0.24977	0.36162	1.2541	-0.43013	0.0079647	0.12972	-0.0592	0.0182	-0.0073	-0.0462	0.0165	0.9585
48.2014	3.1214	730.7254	69.5901	-231.6121	-69.4983	764.6162	0.060819	-2.1316	0.85891	-1.3806	0.33119	-3.0085	-0.0592	0.0182	-0.0073	-0.0462	0.0165	0.9585
48.2132	6.7474	733.7581	69.25	-232.6685	-67.5892	761.9026	0.071593	-5.2778	0.53452	-2.6201	0.5218	-6.9732	-0.0592	0.0182	-0.0073	-0.0462	0.0165	0.9585
48.225	10.9196	736.1409	68.9278	-233.573	-65.5058	758.3185	0.3437	-8.8234	0.33034	-4.0443	0.49208	-11.4358	-0.0592	0.0182	-0.0073	-0.0462	0.0165	0.9585
48.2368	15.6813	737.8492	68.7179	-234.2898	-63.3142	753.8894	0.96486	-12.214	0.29798	-5.4167	0.13688	-15.7074	-0.0592	0.0182	-0.0073	-0.0462	0.0165	0.9585
48.2486	21.0372	738.822	68.67	-234.781	-61.0498	748.6132	1.9972	-14.445	0.51151	-6.3097	-0.66494	-18.5211	-0.0592	0.0182	-0.0073	-0.0462	0.0165	0.9585
48.2604	26.893	738.839	68.8271	-234.9661	-58.7786	742.3657	3.4898	-13.9643	1.0488	-6.0611	-2.0293	-17.9194	-0.0592	0.0182	-0.0073	-0.0462	0.0165	0.9585
48.2721	33.024	737.4554	69.1189	-234.7007	-56.509	734.8168	5.4061	-8.5667	2.0033	-3.7366	-4.0539	-11.1134	-0.0592	0.0182	-0.0073	-0.0462	0.0165	0.9585
48.2839	39.1018	734.0108	69.4405	-233.7749	-54.2595	725.4332	7.5969	4.5691	3.452	1.8517	-6.763	5.4635	-0.0592	0.0182	-0.0073	-0.0462	0.0165	0.9585
48.2957	44.7857	727.711	69.5629	-231.9446	-51.9445	713.5693	9.7073	28.6626	5.4238	12.053	-10.0295	35.8921	-0.0592	0.0182	-0.0073	-0.0462	0.0165	0.9585
48.3075	49.8005	717.6541	69.2066	-228.9329	-49.4213	698.4786	11.1036	66.8247	7.8436	28.1602	-13.472	84.116	-0.0592	0.0182	-0.0073	-0.0462	0.0165	0.9585
48.3193	53.9162	702.8353	68.0063	-224.4293	-46.4551	679.3328	10.7992	121.1413	10.4563	51.0256	-16.3326	152.772	-0.0592	0.0182	-0.0073	-0.0462	0.0165	0.9585
48.3311	56.9533	682.0917	65.6025	-218.0687	-42.7992	655.1597	7.4138	191.2799	12.7372	80.469	-17.3614	241.4471	-0.0592	0.0182	-0.0073	-0.0462	0.0165	0.9585
48.3429	58.7094	654.1777	61.7001	-209.452	-38.2694	624.9046	-0.52736	272.7664	13.9179	114.5523	-14.9869	344.4832	-0.0592	0.0182	-0.0073	-0.0462	0.0165	0.9585
48.3546	58.9727	617.9565	56.1852	-198.2067	-32.8456	587.5639	-13.2923	355.8402	12.8718	149.111	-7.7543	449.5169	-0.0592	0.0182	-0.0073	-0.0462	0.0165	0.9585
48.3664	57.5405	572.8144	49.2376	-184.116	-26.771	542.5972	-28.1641	428.84	7.9804	179.2395	4.9046	541.6129	-0.0592	0.0182	-0.0073	-0.0462	0.0165	0.9585
48.3782	54.3183	519.1625	41.3561	-167.2694	-20.5283	490.3578	-42.3185	486.4661	0.090432	202.7017	20.7644	613.7428	-0.0592	0.0182	-0.0073	-0.0462	0.0165	0.9585
48.39	49.3703	458.5797	33.2829	-148.1177	-14.7429	432.27	-53.9295	529.5336	-9.6913	219.8664	37.7547	666.6405	-0.0592	0.0182	-0.0073	-0.0462	0.0165	0.9585
48.4018	43.0458	393.5112	25.8075	-127.3991	-9.9786	370.493	-62.1638	561.8804	-20.1458	232.4286	53.983	705.1102	-0.0592	0.0182	-0.0073	-0.0462	0.0165	0.9585
48.4136	35.6522	327.0559	19.394	-106.0849	-6.5151	307.8276	-66.9313	588.1539	-29.5992	242.4508	67.5038	735.0188	-0.0592	0.0182	-0.0073	-0.0462	0.0165	0.9585
48.4254	27.6143	262.477	14.2676	-85.2373	-4.4037	247.1799	-68.8119	611.6598	-37.4219	251.4167	77.6901	760.7056	-0.0592	0.0182	-0.0073	-0.0462	0.0165	0.9585
48.4371	19.3974	202.9022	10.3339	-65.9011	-3.4084	191.3996	-68.2944	634.2569	-42.8354	260.179	83.9532	784.5217	-0.0592	0.0182	-0.0073	-0.0462	0.0165	0.9585
48.4489	11.6708	150.7293	7.448	-48.902	-3.1948	142.6008	-66.0661	656.5935	-46.483	268.9915	87.2445	807.4821	-0.0592	0.0182	-0.0073	-0.0462	0.0165	0.9585
48.4607	5.0195	107.3112	5.3648	-34.721	-3.3606	101.997	-62.5203	678.371	-48.5652	277.7139	88.1045	829.2795	-0.0592	0.0182	-0.0073	-0.0462	0.0165	0.9585
48.4725	-0.12459	72.7691	3.8523	-23.4379	-3.5692	69.6311	-58.2675	698.6221	-50.1076	285.8732	87.914	848.9828	-0.0592	0.0182	-0.0073	-0.0462	0.0165	0.9585
48.4843	-3.6822	46.4649	2.7065	-14.8642	-3.6149	44.9226	-53.7667	716.1574	-51.3004	292.9639	87.182	865.2547	-0.0592	0.0182	-0.0073	-0.0462	0.0165	0.9585
48.4961	-5.6422	27.2227	1.8208	-8.6257	-3.4036	26.7667	-49.5933	730.3651	-52.6201	298.6813	86.6406	877.5651	-0.0592	0.0182	-0.0073	-0.0462	0.0165	0.9585
48.5079	-6.197	13.8251	1.1285	-4.3155	-2.9373	14.067	-45.899	741.1984	-53.8126	303.0104	86.137	885.8918	-0.0592	0.0182	-0.0073	-0.0462	0.0165	0.9585
48.5196	-5.621	5.1066	0.59844	-1.5416	-2.2743	5.7159	-42.914	749.0792	-54.796	306.1017	85.6527	890.8672	-0.0592	0.0182	-0.0073	-0.0462	0.0165	0.9585
48.5314	-4.4611	0.050047	0.23476	0.043706	-1.5864	0.79453	-40.5582	754.3872	-55.4591	308.1049	85.0574	892.929	-0.0592	0.0182	-0.0073	-0.0462	0.0165	0.9585
48.5432	-3.1431	-2.3413	0.003935	0.77146	-0.97225	-1.6175	-38.9364	757.4552	-55.8643	309.1237	84.4458	892.5541	-0.0592	0.0182	-0.0073	-0.0462	0.0165	0.9585
48.555	-1.9396	-2.9753	-0.10251	0.94178	-0.50685	-2.3442	-37.9358	758.536	-56.1711	309.2537	83.9548	890.031	-0.0592	0.0182	-0.0073	-0.0462	0.0165	0.9585
48.5668	-0.95569	-2.5864	-0.15315	0.79095	-0.15649	-2.0718	-37.5862	758.256	-56.4226	308.7244	83.6565	886.119	-0.0592	0.0182	-0.0073	-0.0462	0.0165	0.9585
48.5786	-0.22844	-1.6993	-0.14514	0.48916	0.063419	-1.2974	-37.7585	757.2666	-56.763	307.8085	83.662	881.5204	-0.0592	0.0182	-0.0073	-0.0462	0.0165	0.9585
48.5904	0.26095	-0.66664	-0.12777	0.14559	0.20274	-0.36052	-38.3489	756.3713	-57.0945	306.8303	83.8416	877.1299	-0.0592	0.0182	-0.0073	-0.0462	0.0165	0.9585
48.6021	0.56684	0.30458	-0.089393	-0.17502	0.26551	0.54397	-39.1159	756.0677	-57.471	306.0094	84.1525	873.4191	-0.0592	0.0182	-0.0073	-0.0462	0.0165	0.9585
48.6139	0.72612	1.1371	-0.058293	-0.44825	0.28996	1.357	-39.8922	756.6627	-57.7306	305.4816	84.3582	870.6629	-0.0592	0.0182	-0.0073	-0.0462	0.0165	0.9585
48.6257	0.79864	1.7691	-0.028379	-0.65565	0.28519	2.0034	-40.4132	758.1152	-57.8937	305.2417	84.3708	868.7148	-0.0592	0.0182	-0.0073	-0.0462	0.0165	0.9585
48.6375	0.80508	2.249	-0.0056363	-0.81017	0.26255	2.5308	-40.5442	760.1759	-57.8293	305.1976	83.9957	867.2287	-0.0592	0.0182	-0.0073	-0.0462	0.0165	0.9585
48.6493	0.78879	2.5827	0.0064772	-0.91777	0.23768	2.9143	-40.1266	762.4221	-57.5881	305.1838	83.2195	865.6565	-0.0592	0.0182	-0.0073	-0.0462	0.0165	0.9585
48.6611	0.73715	2.8314	0.010776	-0.99562	0.20767	3.2302	-39.1112	764.4538	-57.1505	305.0425	81.9997	863.5226	-0.0592	0.0182	-0.0073	-0.0462	0.0165	0.9585
48.6729	0.69419	3.0021	-0.0015272	-1.0501	0.19407	3.4528	-37.4731	765.9516	-56.6036	304.655	80.4127	860.4543	-0.0592	0.0182	-0.0073	-0.0462	0.0165	0.9585
48.6846	0.6203	3.1048	-0.01446	-1.0838	0.17139	3.6107	-35.2648	766.7801	-55.9909	303.9782	78.5153	856.3186	-0.0592	0.0182	-0.0073	-0.0462	0.0165	0.9585
48.6964	0.55655	3.1162	-0.031071	-1.0926	0.15232	3.6364	-32.5482	766.881	-55.3561	303.0107	76.3766	851.0732	-0.0592	0.0182	-0.0073	-0.0462	0.0165	0.9585
48.7082	0.4539	3.0131	-0.029073	-1.065	0.10089	3.5356	-29.4246	766.2368	-54.7267	301.7715	74.0598	844.7386	-0.0592	0.0182	-0.0073	-0.0462	0.0165	0.9585
48.72	0.35307	2.7268	-0.0080278	-0.97849	0.027743	3.1897	-25.9785	764.839	-54.0842	300.2846	71.581	837.3379	-0.0592	0.0182	-0.0073	-0.0462	0.0165	0.9585
48.7318	0.20449	2.2231	0.036858	-0.81228	-0.086405	2.59	-22.3038	762.6273	-53.4566	298.5546	69.0027	828.8581	-0.0592	0.0182	-0.0073	-0.0462	0.0165	0.9585
48.7436	0.060563	1.384	0.10414	-0.52616	-0.22509	1.5627	-18.4481	759.5709	-52.8084	296.5953	66.3134	819.2917	-0.0592	0.0182	-0.0073	-0.0462	0.0165	0.9585
48.7554	-0.12541	0.17177	0.18154	-0.099123	-0.38678	0.085937	-14.4265	755.7103	-52.1977	294.4375	63.5745	808.6979	-0.0592	0.0182	-0.0073	-0.0462	0.0165	0.9585
48.7671	-0.26676	-1.5035	0.26988	0.49476	-0.54313	-1.9703	-10.2337	751.1278	-51.6035	292.1308	60.757	797.1721	-0.0592	0.0182	-0.0073	-0.0462	0.0165	0.9585
48.7789	-0.35487	-3.5766	0.33255	1.237	-0.64401	-4.4798	-5.8163	746.0322	-51.1182	289.7563	57.9267	784.9562	-0.0592	0.0182	-0.0073	-0.0462	0.0165	0.9585
48.7907	-0.24672	-5.9242	0.36691	2.0793	-0.63225	-7.3092	-1.1459	740.7133	-50.7642	287.4263	55.0914	772.3684	-0.0592	0.0182	-0.0073	-0.0462	0.0165	0.9585
48.8025	0.13176	-8.1176	0.30231	2.8729	-0.40235	-9.913	3.7852	735.5765	-50.6554	285.2849	52.3602	759.8569	-0.0592	0.0182	-0.0073	-0.0462	0.0165	0.9585
48.8143	0.98798	-9.4979	0.11913	3.3741	0.14558	-11.5419	8.9105	731.0652	-50.8468	283.4892	49.8219	747.9331	-0.0592	0.0182	-0.0073	-0.0462	0.0165	0.9585
